<svg id="visual" viewBox="0 0 960 300" width="960" height="300" xmlns="http://www.w3.org/2000/svg" xmlns:xlink="http://www.w3.org/1999/xlink" version="1.1"><rect x="0" y="0" width="960" height="300" fill="#001220"></rect><path d="M0 81L22.8 80.5C45.7 80 91.3 79 137 76.7C182.7 74.3 228.3 70.7 274 69.7C319.7 68.7 365.3 70.3 411.2 69.7C457 69 503 66 548.8 70C594.7 74 640.3 85 686 88C731.7 91 777.3 86 823 83C868.7 80 914.3 79 937.2 78.5L960 78L960 0L937.2 0C914.3 0 868.7 0 823 0C777.3 0 731.7 0 686 0C640.3 0 594.7 0 548.8 0C503 0 457 0 411.2 0C365.3 0 319.7 0 274 0C228.3 0 182.7 0 137 0C91.3 0 45.7 0 22.8 0L0 0Z" fill="#c62368"></path><path d="M0 68L22.8 66.2C45.7 64.3 91.3 60.7 137 61.5C182.7 62.3 228.3 67.7 274 69.2C319.7 70.7 365.3 68.3 411.2 67.2C457 66 503 66 548.8 64.7C594.7 63.3 640.3 60.7 686 63.3C731.7 66 777.3 74 823 76.2C868.7 78.3 914.3 74.7 937.2 72.8L960 71L960 0L937.2 0C914.3 0 868.7 0 823 0C777.3 0 731.7 0 686 0C640.3 0 594.7 0 548.8 0C503 0 457 0 411.2 0C365.3 0 319.7 0 274 0C228.3 0 182.7 0 137 0C91.3 0 45.7 0 22.8 0L0 0Z" fill="#d03267"></path><path d="M0 52L22.8 55C45.7 58 91.3 64 137 67.3C182.7 70.7 228.3 71.3 274 68.2C319.7 65 365.3 58 411.2 55.8C457 53.7 503 56.3 548.8 58.8C594.7 61.3 640.3 63.7 686 65.2C731.7 66.7 777.3 67.3 823 68.2C868.7 69 914.3 70 937.2 70.5L960 71L960 0L937.2 0C914.3 0 868.7 0 823 0C777.3 0 731.7 0 686 0C640.3 0 594.7 0 548.8 0C503 0 457 0 411.2 0C365.3 0 319.7 0 274 0C228.3 0 182.7 0 137 0C91.3 0 45.7 0 22.8 0L0 0Z" fill="#da3f67"></path><path d="M0 52L22.8 51.3C45.7 50.7 91.3 49.3 137 49C182.7 48.7 228.3 49.3 274 49.3C319.7 49.3 365.3 48.7 411.2 47.7C457 46.7 503 45.3 548.8 46.7C594.7 48 640.3 52 686 50.8C731.7 49.7 777.3 43.3 823 40.8C868.7 38.3 914.3 39.7 937.2 40.3L960 41L960 0L937.2 0C914.3 0 868.7 0 823 0C777.3 0 731.7 0 686 0C640.3 0 594.7 0 548.8 0C503 0 457 0 411.2 0C365.3 0 319.7 0 274 0C228.3 0 182.7 0 137 0C91.3 0 45.7 0 22.8 0L0 0Z" fill="#e34c67"></path><path d="M0 41L22.8 38.8C45.7 36.7 91.3 32.3 137 30.7C182.7 29 228.3 30 274 29.8C319.7 29.7 365.3 28.3 411.2 28.5C457 28.7 503 30.3 548.8 33.7C594.7 37 640.3 42 686 43.2C731.7 44.3 777.3 41.7 823 40.8C868.7 40 914.3 41 937.2 41.5L960 42L960 0L937.2 0C914.3 0 868.7 0 823 0C777.3 0 731.7 0 686 0C640.3 0 594.7 0 548.8 0C503 0 457 0 411.2 0C365.3 0 319.7 0 274 0C228.3 0 182.7 0 137 0C91.3 0 45.7 0 22.8 0L0 0Z" fill="#eb5967"></path><path d="M0 18L22.8 19.3C45.7 20.7 91.3 23.3 137 25.5C182.7 27.7 228.3 29.3 274 30.3C319.7 31.3 365.3 31.7 411.2 30.2C457 28.7 503 25.3 548.8 24.3C594.7 23.3 640.3 24.7 686 26.3C731.7 28 777.3 30 823 31.2C868.7 32.3 914.3 32.7 937.2 32.8L960 33L960 0L937.2 0C914.3 0 868.7 0 823 0C777.3 0 731.7 0 686 0C640.3 0 594.7 0 548.8 0C503 0 457 0 411.2 0C365.3 0 319.7 0 274 0C228.3 0 182.7 0 137 0C91.3 0 45.7 0 22.8 0L0 0Z" fill="#f36567"></path><path d="M0 9L22.8 9.3C45.7 9.7 91.3 10.3 137 10C182.7 9.7 228.3 8.3 274 9.2C319.7 10 365.3 13 411.2 14.2C457 15.3 503 14.7 548.8 15.5C594.7 16.3 640.3 18.7 686 17.8C731.7 17 777.3 13 823 11C868.7 9 914.3 9 937.2 9L960 9L960 0L937.2 0C914.3 0 868.7 0 823 0C777.3 0 731.7 0 686 0C640.3 0 594.7 0 548.8 0C503 0 457 0 411.2 0C365.3 0 319.7 0 274 0C228.3 0 182.7 0 137 0C91.3 0 45.7 0 22.8 0L0 0Z" fill="#fa7268"></path></svg>